<?xml version="1.0" encoding="UTF-8" standalone="no"?>
<svg
   width="16"
   height="16"
   viewBox="0 0 16 16"
   version="1.1"
   id="svg5"
   sodipodi:docname="fcitx-lotus-off.svg"
   inkscape:version="1.4.3 (0d15f75042, 2025-12-25)"
   xmlns:inkscape="http://www.inkscape.org/namespaces/inkscape"
   xmlns:sodipodi="http://sodipodi.sourceforge.net/DTD/sodipodi-0.dtd"
   xmlns="http://www.w3.org/2000/svg"
   xmlns:svg="http://www.w3.org/2000/svg">
  <defs
     id="defs5" />
  <sodipodi:namedview
     id="namedview5"
     pagecolor="#ffffff"
     bordercolor="#000000"
     borderopacity="0.25"
     inkscape:showpageshadow="2"
     inkscape:pageopacity="0.0"
     inkscape:pagecheckerboard="0"
     inkscape:deskcolor="#d1d1d1"
     inkscape:zoom="24.159482"
     inkscape:cx="6.6640502"
     inkscape:cy="8.1541483"
     inkscape:window-width="1920"
     inkscape:window-height="1006"
     inkscape:window-x="0"
     inkscape:window-y="0"
     inkscape:window-maximized="1"
     inkscape:current-layer="svg5" />
  <g
     transform="matrix(0.46044587,0,0,0.41458402,-3.0507009,-2.1573135)"
     id="Lotus">
    <!-- Cánh ngoài trái -->
    <path
       d="m 24,35 c -4,-5 -5,-14 0,-21 5,7 4,16 0,21"
       fill="#ffffff"
       stroke="#000000"
       stroke-width="1"
       transform="rotate(-22,24,35)"
       id="path1"
       style="stroke:#ce93d8;stroke-width:0.674563;stroke-linecap:round;stroke-linejoin:round;stroke-dasharray:none;stroke-opacity:1" />
    <!-- Cánh ngoài phải -->
    <path
       d="m 24,35 c -4,-5 -5,-14 0,-21 5,7 4,16 0,21"
       fill="#ffffff"
       stroke="#000000"
       stroke-width="1"
       transform="rotate(22,24,35)"
       id="path2"
       style="stroke:#ce93d8;stroke-width:0.674563;stroke-linecap:round;stroke-linejoin:round;stroke-dasharray:none;stroke-opacity:1" />
    <!-- Cánh trong trái -->
    <path
       d="m 24,35 c -4,-5 -5,-14 0,-21 5,7 4,16 0,21"
       fill="#ffffff"
       stroke="#000000"
       stroke-width="1"
       transform="rotate(-10,24,35)"
       id="path3"
       style="stroke:#ce93d8;stroke-width:0.674563;stroke-linecap:round;stroke-linejoin:round;stroke-dasharray:none;stroke-opacity:1" />
    <!-- Cánh trong phải -->
    <path
       d="m 24,35 c -4,-5 -5,-14 0,-21 5,7 4,16 0,21"
       fill="#ffffff"
       stroke="#000000"
       stroke-width="1"
       transform="rotate(10,24,35)"
       id="path4"
       style="stroke:#ce93d8;stroke-width:0.674563;stroke-linecap:round;stroke-linejoin:round;stroke-dasharray:none;stroke-opacity:1" />
    <!-- Cánh giữa -->
    <path
       d="m 24,35 c -4,-5 -5,-14 0,-21 5,7 4,16 0,21"
       fill="#ffffff"
       stroke="#000000"
       stroke-width="1"
       id="path5"
       style="stroke:#ce93d8;stroke-width:0.674563;stroke-linecap:round;stroke-linejoin:round;stroke-dasharray:none;stroke-opacity:1" />
  </g>
</svg>
